# xmcd
#
# Track frame offsets:
#	150
#	20890
#	37882
#	56567
#	77756
#	101807
#	120239
#	139323
#	154333
#	171737
#	192606
#	209782
#	231986
#	254858
#
# Disc length: 3646 seconds
#
# Revision: 0
# Processed by: cddbd v1.4PL0 Copyright (c) Steve Scherf et al.
# Submitted via: audiograbber 1.82.00
#
DISCID=dd0e3c0e
DTITLE=Faith Hill - Cry
DYEAR=2002
DGENRE=Country
TTITLE0=Back to you
TTITLE1=Cry
TTITLE2=Baby you belong
TTITLE3=Beautiful
TTITLE4=One
TTITLE5=When the lights go down
TTITLE6=Stronger
TTITLE7=You're still here
TTITLE8=Unsaveable
TTITLE9=Free
TTITLE10=If you're gonna fly away
TTITLE11=If this is the end
TTITLE12=This is me
TTITLE13=I think I will
EXTD=
EXTT0=
EXTT1=
EXTT2=
EXTT3=
EXTT4=
EXTT5=
EXTT6=
EXTT7=
EXTT8=
EXTT9=
EXTT10=
EXTT11=
EXTT12=
EXTT13=
PLAYORDER=
